<mxfile host="app.diagrams.net" agent="Mozilla/5.0 (X11; Linux x86_64; rv:136.0) Gecko/20100101 Firefox/136.0" version="26.1.1">
  <diagram name="Page-1" id="cJzOs3-bwicpX7lXmHMl">
    <mxGraphModel dx="1290" dy="1917" grid="1" gridSize="10" guides="1" tooltips="1" connect="1" arrows="1" fold="1" page="1" pageScale="1" pageWidth="850" pageHeight="1100" math="0" shadow="0">
      <root>
        <mxCell id="0" />
        <mxCell id="1" parent="0" />
        <mxCell id="Tbd1GBwR-5EJRv-xsIMM-1" value="&lt;div align=&quot;center&quot;&gt;&lt;b&gt;&amp;lt;&amp;lt;device&amp;gt;&amp;gt;&lt;/b&gt;&lt;/div&gt;&lt;div align=&quot;center&quot;&gt;db&lt;/div&gt;" style="verticalAlign=top;align=center;spacingTop=8;spacingLeft=2;spacingRight=12;shape=cube;size=10;direction=south;fontStyle=4;html=1;whiteSpace=wrap;" vertex="1" parent="1">
          <mxGeometry x="20" y="-30" width="230" height="150" as="geometry" />
        </mxCell>
        <mxCell id="Tbd1GBwR-5EJRv-xsIMM-2" value="pg_volume" style="shape=cylinder3;whiteSpace=wrap;html=1;boundedLbl=1;backgroundOutline=1;size=15;" vertex="1" parent="1">
          <mxGeometry x="30" y="30" width="70" height="55" as="geometry" />
        </mxCell>
        <mxCell id="Tbd1GBwR-5EJRv-xsIMM-3" value="" style="ellipse;whiteSpace=wrap;html=1;aspect=fixed;" vertex="1" parent="1">
          <mxGeometry x="165" y="85" width="30" height="30" as="geometry" />
        </mxCell>
        <mxCell id="Tbd1GBwR-5EJRv-xsIMM-4" value="Virtual network interface" style="text;html=1;align=center;verticalAlign=middle;whiteSpace=wrap;rounded=0;" vertex="1" parent="1">
          <mxGeometry x="110" y="80" width="60" height="30" as="geometry" />
        </mxCell>
        <mxCell id="Tbd1GBwR-5EJRv-xsIMM-6" style="edgeStyle=orthogonalEdgeStyle;rounded=0;orthogonalLoop=1;jettySize=auto;html=1;entryX=0.5;entryY=0;entryDx=0;entryDy=0;" edge="1" parent="1" source="Tbd1GBwR-5EJRv-xsIMM-5" target="Tbd1GBwR-5EJRv-xsIMM-3">
          <mxGeometry relative="1" as="geometry" />
        </mxCell>
        <mxCell id="Tbd1GBwR-5EJRv-xsIMM-5" value="&lt;div&gt;&amp;lt;&amp;lt;artifact&amp;gt;&amp;gt;&lt;/div&gt;&lt;div&gt;Postgres instance&lt;/div&gt;" style="rounded=0;whiteSpace=wrap;html=1;" vertex="1" parent="1">
          <mxGeometry x="130" y="22.5" width="100" height="45" as="geometry" />
        </mxCell>
        <mxCell id="Tbd1GBwR-5EJRv-xsIMM-7" style="rounded=0;orthogonalLoop=1;jettySize=auto;html=1;entryX=1;entryY=0.5;entryDx=0;entryDy=0;entryPerimeter=0;dashed=1;endArrow=block;endFill=0;" edge="1" parent="1" source="Tbd1GBwR-5EJRv-xsIMM-5" target="Tbd1GBwR-5EJRv-xsIMM-2">
          <mxGeometry relative="1" as="geometry" />
        </mxCell>
        <mxCell id="Tbd1GBwR-5EJRv-xsIMM-8" value="&lt;div align=&quot;center&quot;&gt;&lt;b&gt;&amp;lt;&amp;lt;device&amp;gt;&amp;gt;&lt;/b&gt;&lt;/div&gt;&lt;div align=&quot;center&quot;&gt;graph-news-service&lt;/div&gt;" style="verticalAlign=top;align=center;spacingTop=8;spacingLeft=2;spacingRight=12;shape=cube;size=10;direction=south;fontStyle=4;html=1;whiteSpace=wrap;" vertex="1" parent="1">
          <mxGeometry x="370" y="-120" width="370" height="250" as="geometry" />
        </mxCell>
        <mxCell id="Tbd1GBwR-5EJRv-xsIMM-11" style="edgeStyle=orthogonalEdgeStyle;rounded=0;orthogonalLoop=1;jettySize=auto;html=1;entryX=0.5;entryY=0;entryDx=0;entryDy=0;" edge="1" parent="1" source="Tbd1GBwR-5EJRv-xsIMM-23" target="Tbd1GBwR-5EJRv-xsIMM-10">
          <mxGeometry relative="1" as="geometry" />
        </mxCell>
        <mxCell id="Tbd1GBwR-5EJRv-xsIMM-10" value="&lt;div&gt;&amp;lt;&amp;lt;artifact&amp;gt;&amp;gt;&lt;/div&gt;&lt;div&gt;Chromium&lt;/div&gt;" style="rounded=0;whiteSpace=wrap;html=1;" vertex="1" parent="1">
          <mxGeometry x="610" y="65" width="100" height="45" as="geometry" />
        </mxCell>
        <mxCell id="Tbd1GBwR-5EJRv-xsIMM-14" value="" style="ellipse;whiteSpace=wrap;html=1;aspect=fixed;" vertex="1" parent="1">
          <mxGeometry x="430" y="85" width="30" height="30" as="geometry" />
        </mxCell>
        <mxCell id="Tbd1GBwR-5EJRv-xsIMM-15" value="Virtual network interface" style="text;html=1;align=center;verticalAlign=middle;whiteSpace=wrap;rounded=0;" vertex="1" parent="1">
          <mxGeometry x="370" y="80" width="60" height="30" as="geometry" />
        </mxCell>
        <mxCell id="Tbd1GBwR-5EJRv-xsIMM-16" value="&lt;div align=&quot;center&quot;&gt;&lt;b&gt;&amp;lt;&amp;lt;device&amp;gt;&amp;gt;&lt;/b&gt;&lt;/div&gt;&lt;div align=&quot;center&quot;&gt;graph-news-frontend&lt;/div&gt;" style="verticalAlign=top;align=center;spacingTop=8;spacingLeft=2;spacingRight=12;shape=cube;size=10;direction=south;fontStyle=4;html=1;whiteSpace=wrap;" vertex="1" parent="1">
          <mxGeometry x="195" y="180" width="325" height="240" as="geometry" />
        </mxCell>
        <mxCell id="Tbd1GBwR-5EJRv-xsIMM-17" value="&lt;div align=&quot;center&quot;&gt;&lt;b&gt;&amp;lt;&amp;lt;device&amp;gt;&amp;gt;&lt;/b&gt;&lt;/div&gt;&lt;div align=&quot;center&quot;&gt;nginx&lt;/div&gt;" style="verticalAlign=top;align=center;spacingTop=8;spacingLeft=2;spacingRight=12;shape=cube;size=10;direction=south;fontStyle=4;html=1;whiteSpace=wrap;" vertex="1" parent="1">
          <mxGeometry x="210" y="240" width="210" height="130" as="geometry" />
        </mxCell>
        <mxCell id="Tbd1GBwR-5EJRv-xsIMM-20" style="edgeStyle=orthogonalEdgeStyle;rounded=0;orthogonalLoop=1;jettySize=auto;html=1;entryX=1;entryY=0.5;entryDx=0;entryDy=0;" edge="1" parent="1" source="Tbd1GBwR-5EJRv-xsIMM-18" target="Tbd1GBwR-5EJRv-xsIMM-19">
          <mxGeometry relative="1" as="geometry" />
        </mxCell>
        <mxCell id="Tbd1GBwR-5EJRv-xsIMM-21" style="edgeStyle=orthogonalEdgeStyle;rounded=0;orthogonalLoop=1;jettySize=auto;html=1;" edge="1" parent="1" source="Tbd1GBwR-5EJRv-xsIMM-18" target="Tbd1GBwR-5EJRv-xsIMM-14">
          <mxGeometry relative="1" as="geometry" />
        </mxCell>
        <mxCell id="Tbd1GBwR-5EJRv-xsIMM-29" value="http:8080" style="edgeLabel;html=1;align=center;verticalAlign=middle;resizable=0;points=[];" vertex="1" connectable="0" parent="Tbd1GBwR-5EJRv-xsIMM-21">
          <mxGeometry x="0.6346" y="-1" relative="1" as="geometry">
            <mxPoint x="1" as="offset" />
          </mxGeometry>
        </mxCell>
        <mxCell id="Tbd1GBwR-5EJRv-xsIMM-18" value="&lt;div&gt;&amp;lt;&amp;lt;artifact&amp;gt;&amp;gt;&lt;/div&gt;&lt;div&gt;web-app&lt;/div&gt;" style="rounded=0;whiteSpace=wrap;html=1;" vertex="1" parent="1">
          <mxGeometry x="280" y="300" width="120" height="60" as="geometry" />
        </mxCell>
        <mxCell id="Tbd1GBwR-5EJRv-xsIMM-27" style="edgeStyle=orthogonalEdgeStyle;rounded=0;orthogonalLoop=1;jettySize=auto;html=1;entryX=0;entryY=0.5;entryDx=0;entryDy=0;" edge="1" parent="1" source="Tbd1GBwR-5EJRv-xsIMM-19" target="Tbd1GBwR-5EJRv-xsIMM-26">
          <mxGeometry relative="1" as="geometry">
            <Array as="points">
              <mxPoint x="240" y="385" />
            </Array>
          </mxGeometry>
        </mxCell>
        <mxCell id="Tbd1GBwR-5EJRv-xsIMM-28" value="http:80" style="edgeLabel;html=1;align=center;verticalAlign=middle;resizable=0;points=[];" vertex="1" connectable="0" parent="Tbd1GBwR-5EJRv-xsIMM-27">
          <mxGeometry x="0.047" y="-2" relative="1" as="geometry">
            <mxPoint as="offset" />
          </mxGeometry>
        </mxCell>
        <mxCell id="Tbd1GBwR-5EJRv-xsIMM-19" value="" style="ellipse;whiteSpace=wrap;html=1;aspect=fixed;" vertex="1" parent="1">
          <mxGeometry x="220" y="310" width="40" height="40" as="geometry" />
        </mxCell>
        <mxCell id="Tbd1GBwR-5EJRv-xsIMM-25" style="edgeStyle=orthogonalEdgeStyle;rounded=0;orthogonalLoop=1;jettySize=auto;html=1;entryX=0.5;entryY=0;entryDx=0;entryDy=0;" edge="1" parent="1" source="Tbd1GBwR-5EJRv-xsIMM-23" target="Tbd1GBwR-5EJRv-xsIMM-14">
          <mxGeometry relative="1" as="geometry" />
        </mxCell>
        <mxCell id="Tbd1GBwR-5EJRv-xsIMM-23" value="&lt;div align=&quot;center&quot;&gt;&lt;b&gt;&amp;lt;&amp;lt;device&amp;gt;&amp;gt;&lt;/b&gt;&lt;/div&gt;&lt;div align=&quot;center&quot;&gt;JRE&lt;/div&gt;" style="verticalAlign=top;align=center;spacingTop=8;spacingLeft=2;spacingRight=12;shape=cube;size=10;direction=south;fontStyle=4;html=1;whiteSpace=wrap;" vertex="1" parent="1">
          <mxGeometry x="410" y="-60" width="180" height="110" as="geometry" />
        </mxCell>
        <mxCell id="Tbd1GBwR-5EJRv-xsIMM-9" value="&lt;div&gt;&amp;lt;&amp;lt;artifact&amp;gt;&amp;gt;&lt;/div&gt;&lt;div&gt;Java application&lt;/div&gt;" style="rounded=0;whiteSpace=wrap;html=1;" vertex="1" parent="1">
          <mxGeometry x="440" y="-10" width="100" height="45" as="geometry" />
        </mxCell>
        <mxCell id="Tbd1GBwR-5EJRv-xsIMM-12" style="edgeStyle=orthogonalEdgeStyle;rounded=0;orthogonalLoop=1;jettySize=auto;html=1;entryX=1;entryY=0.5;entryDx=0;entryDy=0;dashed=1;endArrow=block;endFill=0;" edge="1" parent="1" source="Tbd1GBwR-5EJRv-xsIMM-9" target="Tbd1GBwR-5EJRv-xsIMM-3">
          <mxGeometry relative="1" as="geometry" />
        </mxCell>
        <mxCell id="Tbd1GBwR-5EJRv-xsIMM-13" value="TCP:5432" style="edgeLabel;html=1;align=center;verticalAlign=middle;resizable=0;points=[];" vertex="1" connectable="0" parent="Tbd1GBwR-5EJRv-xsIMM-12">
          <mxGeometry x="-0.0184" relative="1" as="geometry">
            <mxPoint as="offset" />
          </mxGeometry>
        </mxCell>
        <mxCell id="Tbd1GBwR-5EJRv-xsIMM-26" value="" style="ellipse;whiteSpace=wrap;html=1;aspect=fixed;" vertex="1" parent="1">
          <mxGeometry x="450" y="360" width="50" height="50" as="geometry" />
        </mxCell>
        <mxCell id="Tbd1GBwR-5EJRv-xsIMM-30" value="&lt;div align=&quot;center&quot;&gt;&lt;b&gt;&amp;lt;&amp;lt;device&amp;gt;&amp;gt;&lt;/b&gt;&lt;/div&gt;&lt;div align=&quot;center&quot;&gt;Client PC&lt;/div&gt;" style="verticalAlign=top;align=center;spacingTop=8;spacingLeft=2;spacingRight=12;shape=cube;size=10;direction=south;fontStyle=4;html=1;whiteSpace=wrap;" vertex="1" parent="1">
          <mxGeometry x="660" y="295" width="220" height="130" as="geometry" />
        </mxCell>
        <mxCell id="Tbd1GBwR-5EJRv-xsIMM-33" style="edgeStyle=orthogonalEdgeStyle;rounded=0;orthogonalLoop=1;jettySize=auto;html=1;entryX=1;entryY=0.5;entryDx=0;entryDy=0;" edge="1" parent="1" source="Tbd1GBwR-5EJRv-xsIMM-32" target="Tbd1GBwR-5EJRv-xsIMM-26">
          <mxGeometry relative="1" as="geometry" />
        </mxCell>
        <mxCell id="Tbd1GBwR-5EJRv-xsIMM-34" value="http:5173" style="edgeLabel;html=1;align=center;verticalAlign=middle;resizable=0;points=[];" vertex="1" connectable="0" parent="Tbd1GBwR-5EJRv-xsIMM-33">
          <mxGeometry x="0.165" y="2" relative="1" as="geometry">
            <mxPoint as="offset" />
          </mxGeometry>
        </mxCell>
        <mxCell id="Tbd1GBwR-5EJRv-xsIMM-32" value="&lt;div&gt;&amp;lt;&amp;lt;artifact&amp;gt;&amp;gt;&lt;/div&gt;&lt;div&gt;web-browser&lt;/div&gt;" style="rounded=0;whiteSpace=wrap;html=1;" vertex="1" parent="1">
          <mxGeometry x="700" y="355" width="120" height="60" as="geometry" />
        </mxCell>
        <mxCell id="Tbd1GBwR-5EJRv-xsIMM-35" value="Internet" style="ellipse;shape=cloud;whiteSpace=wrap;html=1;" vertex="1" parent="1">
          <mxGeometry x="830" y="50" width="120" height="80" as="geometry" />
        </mxCell>
        <mxCell id="Tbd1GBwR-5EJRv-xsIMM-36" style="edgeStyle=orthogonalEdgeStyle;rounded=0;orthogonalLoop=1;jettySize=auto;html=1;entryX=0.074;entryY=0.458;entryDx=0;entryDy=0;entryPerimeter=0;dashed=1;endArrow=block;endFill=0;" edge="1" parent="1" source="Tbd1GBwR-5EJRv-xsIMM-10" target="Tbd1GBwR-5EJRv-xsIMM-35">
          <mxGeometry relative="1" as="geometry" />
        </mxCell>
      </root>
    </mxGraphModel>
  </diagram>
</mxfile>
